<svg width="512" height="512" viewBox="0 0 512 512" fill="none" xmlns="http://www.w3.org/2000/svg">
<path d="M256.6 74.6C292.333 74.6 324.2 82.0667 352.2 97C380.467 111.667 402.467 132.467 418.2 159.4C433.933 186.067 441.8 216.6 441.8 251C441.8 284.867 435.933 311.4 424.2 330.6C412.467 349.533 396.2 359 375.4 359C362.333 359 351.667 355.133 343.4 347.4C335.4 339.667 331 329 330.2 315.4C322.2 329.267 311.267 340.067 297.4 347.8C283.533 355.267 267.8 359 250.2 359C231.533 359 214.6 354.6 199.4 345.8C184.467 336.733 172.6 324.333 163.8 308.6C155.267 292.867 151 275.133 151 255.4C151 235.667 155.267 218.067 163.8 202.6C172.6 186.867 184.467 174.6 199.4 165.8C214.6 157 231.533 152.6 250.2 152.6C267.267 152.6 282.6 156.333 296.2 163.8C310.067 171 321.133 181.267 329.4 194.6V154.2H355.4V305.8C355.4 316.467 357.667 324.2 362.2 329C366.733 333.8 372.733 336.2 380.2 336.2C392.733 336.2 402.6 328.733 409.8 313.8C417.267 298.867 421 278.067 421 251.4C421 220.467 414.067 193.267 400.2 169.8C386.333 146.067 366.867 127.667 341.8 114.6C317 101.533 288.6 95 256.6 95C224.333 95 195.667 101.8 170.6 115.4C145.8 128.733 126.467 147.667 112.6 172.2C98.7333 196.467 91.8 224.2 91.8 255.4C91.8 286.6 98.6 314.467 112.2 339C126.067 363.533 145.267 382.6 169.8 396.2C194.6 409.8 223 416.6 255 416.6C267.533 416.6 280.6 415.133 294.2 412.2C308.067 409.267 320.6 404.867 331.8 399L338.6 418.6C327.133 424.467 313.8 429 298.6 432.2C283.667 435.4 269.133 437 255 437C218.733 437 186.6 429.267 158.6 413.8C130.6 398.333 108.733 376.867 93 349.4C77.5333 321.667 69.8 290.333 69.8 255.4C69.8 220.2 77.6667 189 93.4 161.8C109.133 134.333 131.133 113 159.4 97.8C187.933 82.3333 220.333 74.6 256.6 74.6ZM253.8 335.8C268.2 335.8 281.133 332.467 292.6 325.8C304.067 319.133 313.133 309.8 319.8 297.8C326.467 285.533 329.8 271.4 329.8 255.4C329.8 239.667 326.467 225.8 319.8 213.8C313.133 201.533 304.067 192.2 292.6 185.8C281.133 179.133 268.2 175.8 253.8 175.8C239.133 175.8 225.933 179.133 214.2 185.8C202.733 192.467 193.667 201.8 187 213.8C180.6 225.8 177.4 239.667 177.4 255.4C177.4 271.133 180.6 285.133 187 297.4C193.667 309.4 202.733 318.867 214.2 325.8C225.933 332.467 239.133 335.8 253.8 335.8Z" fill="black"/>
</svg>
