<svg width="44" height="44" viewBox="0 0 44 44" fill="none" xmlns="http://www.w3.org/2000/svg">
<g clip-path="url(#clip0_170_10464)">


<path d="M29.4504 14.8299C28.8904 14.4399 28.1804 14.3799 27.5704 14.6699L14.4504 21.5799C13.4704 22.0999 13.5304 23.5199 14.5404 23.9699C14.7504 24.0699 14.9404 24.1499 15.0904 24.1899L16.7004 24.5899C17.2504 24.7299 17.8504 24.6199 18.3304 24.3099L25.1404 19.0699C25.3004 18.9499 25.5204 18.9699 25.6504 19.1199C25.7804 19.2599 25.7804 19.4799 25.6504 19.6199L20.7404 24.9999C20.5204 25.2199 20.4204 25.5099 20.4504 25.7999C20.4804 26.0899 20.6404 26.3499 20.8904 26.4999L26.8804 29.3599C27.7904 29.7899 28.8604 29.1899 28.9704 28.1899L30.2404 16.5399C30.3004 15.8599 30.0104 15.2199 29.4504 14.8299Z" fill="#9D9D9D"/>
</g>
<defs>
<clipPath id="clip0_170_10464">
<rect width="18" height="18" fill="white" transform="translate(13 13)"/>
</clipPath>
</defs>
</svg>
